<mxfile host="app.diagrams.net" modified="2022-02-22T11:48:39.751Z" agent="5.0 (Windows NT 10.0; Win64; x64) AppleWebKit/537.36 (KHTML, like Gecko) Chrome/98.0.4758.102 Safari/537.36" etag="-eBkqVbQB-xQjFc1f-JC" version="16.6.2" type="github">
  <diagram id="6pNL69qGuiJbpC73k_na" name="Page-1">
    <mxGraphModel dx="728" dy="1441" grid="1" gridSize="10" guides="1" tooltips="1" connect="1" arrows="1" fold="1" page="1" pageScale="1" pageWidth="850" pageHeight="1100" math="0" shadow="0">
      <root>
        <mxCell id="0" />
        <mxCell id="1" parent="0" />
        <mxCell id="kqk7iKReCNO2bqUtsNR8-7" style="edgeStyle=orthogonalEdgeStyle;rounded=0;orthogonalLoop=1;jettySize=auto;html=1;exitX=0.5;exitY=0;exitDx=0;exitDy=0;entryX=0.5;entryY=1;entryDx=0;entryDy=0;fontSize=10;endArrow=none;endFill=0;" edge="1" parent="1" source="kqk7iKReCNO2bqUtsNR8-1" target="kqk7iKReCNO2bqUtsNR8-6">
          <mxGeometry relative="1" as="geometry">
            <Array as="points">
              <mxPoint x="270" y="100" />
              <mxPoint x="270" y="100" />
            </Array>
          </mxGeometry>
        </mxCell>
        <mxCell id="kqk7iKReCNO2bqUtsNR8-109" value="(1,n)" style="edgeLabel;html=1;align=center;verticalAlign=middle;resizable=0;points=[];fontSize=10;" vertex="1" connectable="0" parent="kqk7iKReCNO2bqUtsNR8-7">
          <mxGeometry x="-0.2052" relative="1" as="geometry">
            <mxPoint y="-5" as="offset" />
          </mxGeometry>
        </mxCell>
        <mxCell id="kqk7iKReCNO2bqUtsNR8-17" style="edgeStyle=none;rounded=0;orthogonalLoop=1;jettySize=auto;html=1;entryX=0.5;entryY=0;entryDx=0;entryDy=0;fontSize=10;endArrow=none;endFill=0;" edge="1" parent="1" source="kqk7iKReCNO2bqUtsNR8-1" target="kqk7iKReCNO2bqUtsNR8-15">
          <mxGeometry relative="1" as="geometry" />
        </mxCell>
        <mxCell id="kqk7iKReCNO2bqUtsNR8-111" value="(0,n)" style="edgeLabel;html=1;align=center;verticalAlign=middle;resizable=0;points=[];fontSize=10;" vertex="1" connectable="0" parent="kqk7iKReCNO2bqUtsNR8-17">
          <mxGeometry x="0.4" y="2" relative="1" as="geometry">
            <mxPoint x="-2" y="-6" as="offset" />
          </mxGeometry>
        </mxCell>
        <mxCell id="kqk7iKReCNO2bqUtsNR8-44" style="edgeStyle=none;rounded=0;orthogonalLoop=1;jettySize=auto;html=1;entryX=0;entryY=0.5;entryDx=0;entryDy=0;fontSize=10;endArrow=none;endFill=0;" edge="1" parent="1" source="kqk7iKReCNO2bqUtsNR8-1" target="kqk7iKReCNO2bqUtsNR8-43">
          <mxGeometry relative="1" as="geometry" />
        </mxCell>
        <mxCell id="kqk7iKReCNO2bqUtsNR8-122" value="(1,1)" style="edgeLabel;html=1;align=center;verticalAlign=middle;resizable=0;points=[];fontSize=10;" vertex="1" connectable="0" parent="kqk7iKReCNO2bqUtsNR8-44">
          <mxGeometry x="-0.4978" y="2" relative="1" as="geometry">
            <mxPoint x="8" y="1" as="offset" />
          </mxGeometry>
        </mxCell>
        <mxCell id="kqk7iKReCNO2bqUtsNR8-1" value="Carro" style="rounded=0;whiteSpace=wrap;html=1;fillColor=#fff2cc;strokeColor=#d6b656;" vertex="1" parent="1">
          <mxGeometry x="210" y="120" width="120" height="60" as="geometry" />
        </mxCell>
        <mxCell id="kqk7iKReCNO2bqUtsNR8-4" style="rounded=0;orthogonalLoop=1;jettySize=auto;html=1;fontSize=10;endArrow=none;endFill=0;" edge="1" parent="1" source="kqk7iKReCNO2bqUtsNR8-2" target="kqk7iKReCNO2bqUtsNR8-1">
          <mxGeometry relative="1" as="geometry" />
        </mxCell>
        <mxCell id="kqk7iKReCNO2bqUtsNR8-2" value="numero_de_identificacao" style="ellipse;whiteSpace=wrap;html=1;fontStyle=4;fontSize=10;" vertex="1" parent="1">
          <mxGeometry x="60" y="170" width="120" height="50" as="geometry" />
        </mxCell>
        <mxCell id="kqk7iKReCNO2bqUtsNR8-5" value="Equipe" style="rounded=0;whiteSpace=wrap;html=1;fillColor=#fff2cc;strokeColor=#d6b656;" vertex="1" parent="1">
          <mxGeometry x="210" y="-90" width="120" height="60" as="geometry" />
        </mxCell>
        <mxCell id="kqk7iKReCNO2bqUtsNR8-8" style="edgeStyle=orthogonalEdgeStyle;rounded=0;orthogonalLoop=1;jettySize=auto;html=1;entryX=0.5;entryY=1;entryDx=0;entryDy=0;fontSize=10;endArrow=none;endFill=0;" edge="1" parent="1" source="kqk7iKReCNO2bqUtsNR8-6" target="kqk7iKReCNO2bqUtsNR8-5">
          <mxGeometry relative="1" as="geometry">
            <Array as="points">
              <mxPoint x="270" y="-20" />
              <mxPoint x="270" y="-20" />
            </Array>
          </mxGeometry>
        </mxCell>
        <mxCell id="kqk7iKReCNO2bqUtsNR8-108" value="(1,1)" style="edgeLabel;html=1;align=center;verticalAlign=middle;resizable=0;points=[];fontSize=10;" vertex="1" connectable="0" parent="kqk7iKReCNO2bqUtsNR8-8">
          <mxGeometry x="0.26" relative="1" as="geometry">
            <mxPoint y="4" as="offset" />
          </mxGeometry>
        </mxCell>
        <mxCell id="kqk7iKReCNO2bqUtsNR8-6" value="inscreve" style="rhombus;whiteSpace=wrap;html=1;fontSize=10;fillColor=#dae8fc;strokeColor=#6c8ebf;" vertex="1" parent="1">
          <mxGeometry x="240" y="20" width="60" height="60" as="geometry" />
        </mxCell>
        <mxCell id="kqk7iKReCNO2bqUtsNR8-12" style="edgeStyle=none;rounded=0;orthogonalLoop=1;jettySize=auto;html=1;entryX=0;entryY=0.25;entryDx=0;entryDy=0;fontSize=10;endArrow=none;endFill=0;" edge="1" parent="1" source="kqk7iKReCNO2bqUtsNR8-9" target="kqk7iKReCNO2bqUtsNR8-5">
          <mxGeometry relative="1" as="geometry" />
        </mxCell>
        <mxCell id="kqk7iKReCNO2bqUtsNR8-9" value="nome" style="ellipse;whiteSpace=wrap;html=1;fontSize=10;" vertex="1" parent="1">
          <mxGeometry x="92.5" y="-110" width="80" height="40" as="geometry" />
        </mxCell>
        <mxCell id="kqk7iKReCNO2bqUtsNR8-11" style="rounded=0;orthogonalLoop=1;jettySize=auto;html=1;entryX=0;entryY=0.75;entryDx=0;entryDy=0;fontSize=10;endArrow=none;endFill=0;" edge="1" parent="1" source="kqk7iKReCNO2bqUtsNR8-10" target="kqk7iKReCNO2bqUtsNR8-5">
          <mxGeometry relative="1" as="geometry" />
        </mxCell>
        <mxCell id="kqk7iKReCNO2bqUtsNR8-10" value="país" style="ellipse;whiteSpace=wrap;html=1;fontSize=10;" vertex="1" parent="1">
          <mxGeometry x="95" y="-60" width="75" height="40" as="geometry" />
        </mxCell>
        <mxCell id="kqk7iKReCNO2bqUtsNR8-13" style="edgeStyle=none;rounded=0;orthogonalLoop=1;jettySize=auto;html=1;exitX=0.5;exitY=0;exitDx=0;exitDy=0;fontSize=10;endArrow=none;endFill=0;" edge="1" parent="1" source="kqk7iKReCNO2bqUtsNR8-9" target="kqk7iKReCNO2bqUtsNR8-9">
          <mxGeometry relative="1" as="geometry" />
        </mxCell>
        <mxCell id="kqk7iKReCNO2bqUtsNR8-16" style="edgeStyle=none;rounded=0;orthogonalLoop=1;jettySize=auto;html=1;fontSize=10;endArrow=none;endFill=0;" edge="1" parent="1" source="kqk7iKReCNO2bqUtsNR8-14" target="kqk7iKReCNO2bqUtsNR8-15">
          <mxGeometry relative="1" as="geometry" />
        </mxCell>
        <mxCell id="kqk7iKReCNO2bqUtsNR8-110" value="(1,1)" style="edgeLabel;html=1;align=center;verticalAlign=middle;resizable=0;points=[];fontSize=10;" vertex="1" connectable="0" parent="kqk7iKReCNO2bqUtsNR8-16">
          <mxGeometry x="-0.3667" y="1" relative="1" as="geometry">
            <mxPoint x="1" y="-6" as="offset" />
          </mxGeometry>
        </mxCell>
        <mxCell id="kqk7iKReCNO2bqUtsNR8-29" style="edgeStyle=none;rounded=0;orthogonalLoop=1;jettySize=auto;html=1;entryX=0;entryY=0.5;entryDx=0;entryDy=0;fontSize=10;endArrow=none;endFill=0;" edge="1" parent="1" source="kqk7iKReCNO2bqUtsNR8-14" target="kqk7iKReCNO2bqUtsNR8-28">
          <mxGeometry relative="1" as="geometry" />
        </mxCell>
        <mxCell id="kqk7iKReCNO2bqUtsNR8-112" value="(1,1)" style="edgeLabel;html=1;align=center;verticalAlign=middle;resizable=0;points=[];fontSize=10;" vertex="1" connectable="0" parent="kqk7iKReCNO2bqUtsNR8-29">
          <mxGeometry x="-0.4" y="-1" relative="1" as="geometry">
            <mxPoint x="7" y="-1" as="offset" />
          </mxGeometry>
        </mxCell>
        <mxCell id="kqk7iKReCNO2bqUtsNR8-14" value="Fabricante" style="rounded=0;whiteSpace=wrap;html=1;fillColor=#fff2cc;strokeColor=#d6b656;" vertex="1" parent="1">
          <mxGeometry x="210" y="300" width="120" height="60" as="geometry" />
        </mxCell>
        <mxCell id="kqk7iKReCNO2bqUtsNR8-15" value="fabrica" style="rhombus;whiteSpace=wrap;html=1;fontSize=10;fillColor=#dae8fc;strokeColor=#6c8ebf;" vertex="1" parent="1">
          <mxGeometry x="240" y="210" width="60" height="60" as="geometry" />
        </mxCell>
        <mxCell id="kqk7iKReCNO2bqUtsNR8-18" style="edgeStyle=none;rounded=0;orthogonalLoop=1;jettySize=auto;html=1;entryX=0;entryY=0.25;entryDx=0;entryDy=0;fontSize=10;endArrow=none;endFill=0;" edge="1" parent="1" source="kqk7iKReCNO2bqUtsNR8-19">
          <mxGeometry relative="1" as="geometry">
            <mxPoint x="210" y="305" as="targetPoint" />
          </mxGeometry>
        </mxCell>
        <mxCell id="kqk7iKReCNO2bqUtsNR8-19" value="nome" style="ellipse;whiteSpace=wrap;html=1;fontSize=10;" vertex="1" parent="1">
          <mxGeometry x="100" y="260" width="80" height="40" as="geometry" />
        </mxCell>
        <mxCell id="kqk7iKReCNO2bqUtsNR8-20" style="rounded=0;orthogonalLoop=1;jettySize=auto;html=1;entryX=0;entryY=0.5;entryDx=0;entryDy=0;fontSize=10;endArrow=none;endFill=0;" edge="1" parent="1" source="kqk7iKReCNO2bqUtsNR8-21" target="kqk7iKReCNO2bqUtsNR8-14">
          <mxGeometry relative="1" as="geometry">
            <mxPoint x="210" y="335" as="targetPoint" />
          </mxGeometry>
        </mxCell>
        <mxCell id="kqk7iKReCNO2bqUtsNR8-21" value="país" style="ellipse;whiteSpace=wrap;html=1;fontSize=10;" vertex="1" parent="1">
          <mxGeometry x="72.5" y="310" width="75" height="40" as="geometry" />
        </mxCell>
        <mxCell id="kqk7iKReCNO2bqUtsNR8-22" style="edgeStyle=none;rounded=0;orthogonalLoop=1;jettySize=auto;html=1;exitX=0.5;exitY=0;exitDx=0;exitDy=0;fontSize=10;endArrow=none;endFill=0;" edge="1" parent="1" source="kqk7iKReCNO2bqUtsNR8-19" target="kqk7iKReCNO2bqUtsNR8-19">
          <mxGeometry relative="1" as="geometry" />
        </mxCell>
        <mxCell id="kqk7iKReCNO2bqUtsNR8-25" style="edgeStyle=none;rounded=0;orthogonalLoop=1;jettySize=auto;html=1;entryX=0;entryY=0.75;entryDx=0;entryDy=0;fontSize=10;endArrow=none;endFill=0;" edge="1" parent="1" source="kqk7iKReCNO2bqUtsNR8-24" target="kqk7iKReCNO2bqUtsNR8-14">
          <mxGeometry relative="1" as="geometry" />
        </mxCell>
        <mxCell id="kqk7iKReCNO2bqUtsNR8-24" value="&lt;u&gt;codigo&lt;/u&gt;" style="ellipse;whiteSpace=wrap;html=1;fontSize=10;" vertex="1" parent="1">
          <mxGeometry x="95" y="360" width="80" height="40" as="geometry" />
        </mxCell>
        <mxCell id="kqk7iKReCNO2bqUtsNR8-115" style="edgeStyle=orthogonalEdgeStyle;rounded=0;orthogonalLoop=1;jettySize=auto;html=1;fontSize=10;endArrow=none;endFill=0;" edge="1" parent="1" source="kqk7iKReCNO2bqUtsNR8-26" target="kqk7iKReCNO2bqUtsNR8-114">
          <mxGeometry relative="1" as="geometry" />
        </mxCell>
        <mxCell id="kqk7iKReCNO2bqUtsNR8-121" value="(1,n)" style="edgeLabel;html=1;align=center;verticalAlign=middle;resizable=0;points=[];fontSize=10;" vertex="1" connectable="0" parent="kqk7iKReCNO2bqUtsNR8-115">
          <mxGeometry x="-0.6966" y="3" relative="1" as="geometry">
            <mxPoint x="14" y="2" as="offset" />
          </mxGeometry>
        </mxCell>
        <mxCell id="kqk7iKReCNO2bqUtsNR8-26" value="Modelo" style="rounded=0;whiteSpace=wrap;html=1;fillColor=#fff2cc;strokeColor=#d6b656;" vertex="1" parent="1">
          <mxGeometry x="470" y="300" width="120" height="60" as="geometry" />
        </mxCell>
        <mxCell id="kqk7iKReCNO2bqUtsNR8-30" style="edgeStyle=none;rounded=0;orthogonalLoop=1;jettySize=auto;html=1;entryX=0;entryY=0.5;entryDx=0;entryDy=0;fontSize=10;endArrow=none;endFill=0;" edge="1" parent="1" source="kqk7iKReCNO2bqUtsNR8-28" target="kqk7iKReCNO2bqUtsNR8-26">
          <mxGeometry relative="1" as="geometry" />
        </mxCell>
        <mxCell id="kqk7iKReCNO2bqUtsNR8-113" value="(1,n)" style="edgeLabel;html=1;align=center;verticalAlign=middle;resizable=0;points=[];fontSize=10;" vertex="1" connectable="0" parent="kqk7iKReCNO2bqUtsNR8-30">
          <mxGeometry x="-0.6" y="-2" relative="1" as="geometry">
            <mxPoint x="8" y="-2" as="offset" />
          </mxGeometry>
        </mxCell>
        <mxCell id="kqk7iKReCNO2bqUtsNR8-28" value="cria" style="rhombus;whiteSpace=wrap;html=1;fontSize=10;fillColor=#dae8fc;strokeColor=#6c8ebf;" vertex="1" parent="1">
          <mxGeometry x="370" y="300" width="60" height="60" as="geometry" />
        </mxCell>
        <mxCell id="kqk7iKReCNO2bqUtsNR8-33" style="edgeStyle=none;rounded=0;orthogonalLoop=1;jettySize=auto;html=1;entryX=0.075;entryY=1.017;entryDx=0;entryDy=0;entryPerimeter=0;fontSize=10;endArrow=none;endFill=0;" edge="1" parent="1" source="kqk7iKReCNO2bqUtsNR8-32" target="kqk7iKReCNO2bqUtsNR8-26">
          <mxGeometry relative="1" as="geometry" />
        </mxCell>
        <mxCell id="kqk7iKReCNO2bqUtsNR8-32" value="&lt;u&gt;numeracao&lt;/u&gt;" style="ellipse;whiteSpace=wrap;html=1;fontSize=10;" vertex="1" parent="1">
          <mxGeometry x="390" y="400" width="80" height="40" as="geometry" />
        </mxCell>
        <mxCell id="kqk7iKReCNO2bqUtsNR8-38" style="edgeStyle=none;rounded=0;orthogonalLoop=1;jettySize=auto;html=1;entryX=0.25;entryY=1;entryDx=0;entryDy=0;fontSize=10;endArrow=none;endFill=0;" edge="1" parent="1" source="kqk7iKReCNO2bqUtsNR8-34" target="kqk7iKReCNO2bqUtsNR8-26">
          <mxGeometry relative="1" as="geometry" />
        </mxCell>
        <mxCell id="kqk7iKReCNO2bqUtsNR8-34" value="nome" style="ellipse;whiteSpace=wrap;html=1;fontSize=10;" vertex="1" parent="1">
          <mxGeometry x="450" y="440" width="75" height="40" as="geometry" />
        </mxCell>
        <mxCell id="kqk7iKReCNO2bqUtsNR8-39" style="edgeStyle=none;rounded=0;orthogonalLoop=1;jettySize=auto;html=1;entryX=0.5;entryY=1;entryDx=0;entryDy=0;fontSize=10;endArrow=none;endFill=0;" edge="1" parent="1" source="kqk7iKReCNO2bqUtsNR8-35" target="kqk7iKReCNO2bqUtsNR8-26">
          <mxGeometry relative="1" as="geometry" />
        </mxCell>
        <mxCell id="kqk7iKReCNO2bqUtsNR8-35" value="descricao" style="ellipse;whiteSpace=wrap;html=1;fontSize=10;" vertex="1" parent="1">
          <mxGeometry x="530" y="440" width="75" height="40" as="geometry" />
        </mxCell>
        <mxCell id="kqk7iKReCNO2bqUtsNR8-40" style="edgeStyle=none;rounded=0;orthogonalLoop=1;jettySize=auto;html=1;entryX=0.75;entryY=1;entryDx=0;entryDy=0;fontSize=10;endArrow=none;endFill=0;" edge="1" parent="1" source="kqk7iKReCNO2bqUtsNR8-36" target="kqk7iKReCNO2bqUtsNR8-26">
          <mxGeometry relative="1" as="geometry" />
        </mxCell>
        <mxCell id="kqk7iKReCNO2bqUtsNR8-36" value="potencia" style="ellipse;whiteSpace=wrap;html=1;fontSize=10;" vertex="1" parent="1">
          <mxGeometry x="590" y="410" width="75" height="40" as="geometry" />
        </mxCell>
        <mxCell id="kqk7iKReCNO2bqUtsNR8-41" style="edgeStyle=none;rounded=0;orthogonalLoop=1;jettySize=auto;html=1;entryX=1;entryY=0.5;entryDx=0;entryDy=0;fontSize=10;endArrow=none;endFill=0;" edge="1" parent="1" source="kqk7iKReCNO2bqUtsNR8-37" target="kqk7iKReCNO2bqUtsNR8-114">
          <mxGeometry relative="1" as="geometry" />
        </mxCell>
        <mxCell id="kqk7iKReCNO2bqUtsNR8-37" value="categoria" style="ellipse;whiteSpace=wrap;html=1;fontSize=10;" vertex="1" parent="1">
          <mxGeometry x="695" y="260" width="75" height="40" as="geometry" />
        </mxCell>
        <mxCell id="kqk7iKReCNO2bqUtsNR8-42" value="Piloto" style="rounded=0;whiteSpace=wrap;html=1;fillColor=#fff2cc;strokeColor=#d6b656;" vertex="1" parent="1">
          <mxGeometry x="470" y="120" width="120" height="60" as="geometry" />
        </mxCell>
        <mxCell id="kqk7iKReCNO2bqUtsNR8-45" style="edgeStyle=none;rounded=0;orthogonalLoop=1;jettySize=auto;html=1;entryX=0;entryY=0.5;entryDx=0;entryDy=0;fontSize=10;endArrow=none;endFill=0;" edge="1" parent="1" source="kqk7iKReCNO2bqUtsNR8-43" target="kqk7iKReCNO2bqUtsNR8-42">
          <mxGeometry relative="1" as="geometry" />
        </mxCell>
        <mxCell id="kqk7iKReCNO2bqUtsNR8-123" value="(1,n)" style="edgeLabel;html=1;align=center;verticalAlign=middle;resizable=0;points=[];fontSize=10;" vertex="1" connectable="0" parent="kqk7iKReCNO2bqUtsNR8-45">
          <mxGeometry x="0.4152" relative="1" as="geometry">
            <mxPoint x="-9" y="-1" as="offset" />
          </mxGeometry>
        </mxCell>
        <mxCell id="kqk7iKReCNO2bqUtsNR8-43" value="possui" style="rhombus;whiteSpace=wrap;html=1;fontSize=10;fillColor=#dae8fc;strokeColor=#6c8ebf;" vertex="1" parent="1">
          <mxGeometry x="370" y="120" width="60" height="60" as="geometry" />
        </mxCell>
        <mxCell id="kqk7iKReCNO2bqUtsNR8-49" style="edgeStyle=none;rounded=0;orthogonalLoop=1;jettySize=auto;html=1;entryX=0.075;entryY=-0.017;entryDx=0;entryDy=0;entryPerimeter=0;fontSize=10;endArrow=none;endFill=0;" edge="1" parent="1" source="kqk7iKReCNO2bqUtsNR8-46" target="kqk7iKReCNO2bqUtsNR8-42">
          <mxGeometry relative="1" as="geometry" />
        </mxCell>
        <mxCell id="kqk7iKReCNO2bqUtsNR8-46" value="numero_de_licenca" style="ellipse;whiteSpace=wrap;html=1;fontSize=10;fontStyle=4" vertex="1" parent="1">
          <mxGeometry x="370" y="70" width="100" height="40" as="geometry" />
        </mxCell>
        <mxCell id="kqk7iKReCNO2bqUtsNR8-51" style="edgeStyle=none;rounded=0;orthogonalLoop=1;jettySize=auto;html=1;entryX=0.25;entryY=0;entryDx=0;entryDy=0;fontSize=10;endArrow=none;endFill=0;" edge="1" parent="1" source="kqk7iKReCNO2bqUtsNR8-47" target="kqk7iKReCNO2bqUtsNR8-42">
          <mxGeometry relative="1" as="geometry" />
        </mxCell>
        <mxCell id="kqk7iKReCNO2bqUtsNR8-47" value="nome" style="ellipse;whiteSpace=wrap;html=1;fontSize=10;" vertex="1" parent="1">
          <mxGeometry x="430" y="20" width="75" height="40" as="geometry" />
        </mxCell>
        <mxCell id="kqk7iKReCNO2bqUtsNR8-52" style="edgeStyle=none;rounded=0;orthogonalLoop=1;jettySize=auto;html=1;entryX=0.5;entryY=0;entryDx=0;entryDy=0;fontSize=10;endArrow=none;endFill=0;" edge="1" parent="1" source="kqk7iKReCNO2bqUtsNR8-48" target="kqk7iKReCNO2bqUtsNR8-42">
          <mxGeometry relative="1" as="geometry" />
        </mxCell>
        <mxCell id="kqk7iKReCNO2bqUtsNR8-48" value="pais" style="ellipse;whiteSpace=wrap;html=1;fontSize=10;" vertex="1" parent="1">
          <mxGeometry x="515" y="20" width="75" height="40" as="geometry" />
        </mxCell>
        <mxCell id="kqk7iKReCNO2bqUtsNR8-53" style="edgeStyle=none;rounded=0;orthogonalLoop=1;jettySize=auto;html=1;entryX=0.75;entryY=0;entryDx=0;entryDy=0;fontSize=10;endArrow=none;endFill=0;" edge="1" parent="1" source="kqk7iKReCNO2bqUtsNR8-50" target="kqk7iKReCNO2bqUtsNR8-42">
          <mxGeometry relative="1" as="geometry" />
        </mxCell>
        <mxCell id="kqk7iKReCNO2bqUtsNR8-50" value="tipo" style="ellipse;whiteSpace=wrap;html=1;fontSize=10;" vertex="1" parent="1">
          <mxGeometry x="570" y="60" width="75" height="40" as="geometry" />
        </mxCell>
        <mxCell id="kqk7iKReCNO2bqUtsNR8-55" style="edgeStyle=orthogonalEdgeStyle;rounded=0;orthogonalLoop=1;jettySize=auto;html=1;fontSize=10;endArrow=none;endFill=0;" edge="1" parent="1" source="kqk7iKReCNO2bqUtsNR8-54">
          <mxGeometry relative="1" as="geometry">
            <mxPoint x="480" y="180" as="targetPoint" />
            <Array as="points">
              <mxPoint x="480" y="230" />
              <mxPoint x="480" y="180" />
            </Array>
          </mxGeometry>
        </mxCell>
        <mxCell id="kqk7iKReCNO2bqUtsNR8-117" value="(0,n)" style="edgeLabel;html=1;align=center;verticalAlign=middle;resizable=0;points=[];fontSize=10;" vertex="1" connectable="0" parent="kqk7iKReCNO2bqUtsNR8-55">
          <mxGeometry x="0.0769" y="3" relative="1" as="geometry">
            <mxPoint x="2" y="-7" as="offset" />
          </mxGeometry>
        </mxCell>
        <mxCell id="kqk7iKReCNO2bqUtsNR8-56" style="edgeStyle=orthogonalEdgeStyle;rounded=0;orthogonalLoop=1;jettySize=auto;html=1;fontSize=10;endArrow=none;endFill=0;" edge="1" parent="1" source="kqk7iKReCNO2bqUtsNR8-54">
          <mxGeometry relative="1" as="geometry">
            <mxPoint x="580" y="180" as="targetPoint" />
            <Array as="points">
              <mxPoint x="580" y="230" />
              <mxPoint x="580" y="180" />
            </Array>
          </mxGeometry>
        </mxCell>
        <mxCell id="kqk7iKReCNO2bqUtsNR8-119" value="(0,n)" style="edgeLabel;html=1;align=center;verticalAlign=middle;resizable=0;points=[];fontSize=10;" vertex="1" connectable="0" parent="kqk7iKReCNO2bqUtsNR8-56">
          <mxGeometry x="-0.0933" y="-1" relative="1" as="geometry">
            <mxPoint x="-2" y="-17" as="offset" />
          </mxGeometry>
        </mxCell>
        <mxCell id="kqk7iKReCNO2bqUtsNR8-54" value="reserva" style="rhombus;whiteSpace=wrap;html=1;fontSize=10;fillColor=#dae8fc;strokeColor=#6c8ebf;" vertex="1" parent="1">
          <mxGeometry x="495" y="200" width="60" height="60" as="geometry" />
        </mxCell>
        <mxCell id="kqk7iKReCNO2bqUtsNR8-79" style="edgeStyle=none;rounded=0;orthogonalLoop=1;jettySize=auto;html=1;fontSize=10;endArrow=none;endFill=0;" edge="1" parent="1" source="kqk7iKReCNO2bqUtsNR8-57" target="kqk7iKReCNO2bqUtsNR8-78">
          <mxGeometry relative="1" as="geometry" />
        </mxCell>
        <mxCell id="kqk7iKReCNO2bqUtsNR8-124" value="(1,1)" style="edgeLabel;html=1;align=center;verticalAlign=middle;resizable=0;points=[];fontSize=10;" vertex="1" connectable="0" parent="kqk7iKReCNO2bqUtsNR8-79">
          <mxGeometry x="-0.3778" y="1" relative="1" as="geometry">
            <mxPoint x="1" y="-9" as="offset" />
          </mxGeometry>
        </mxCell>
        <mxCell id="kqk7iKReCNO2bqUtsNR8-116" style="edgeStyle=orthogonalEdgeStyle;rounded=0;orthogonalLoop=1;jettySize=auto;html=1;entryX=0.5;entryY=0;entryDx=0;entryDy=0;fontSize=10;endArrow=none;endFill=0;" edge="1" parent="1" source="kqk7iKReCNO2bqUtsNR8-57" target="kqk7iKReCNO2bqUtsNR8-114">
          <mxGeometry relative="1" as="geometry" />
        </mxCell>
        <mxCell id="kqk7iKReCNO2bqUtsNR8-120" value="(1,1)" style="edgeLabel;html=1;align=center;verticalAlign=middle;resizable=0;points=[];fontSize=10;" vertex="1" connectable="0" parent="kqk7iKReCNO2bqUtsNR8-116">
          <mxGeometry x="-0.6013" y="-3" relative="1" as="geometry">
            <mxPoint x="-9" y="2" as="offset" />
          </mxGeometry>
        </mxCell>
        <mxCell id="kqk7iKReCNO2bqUtsNR8-57" value="Campeonato" style="rounded=0;whiteSpace=wrap;html=1;fillColor=#fff2cc;strokeColor=#d6b656;" vertex="1" parent="1">
          <mxGeometry x="740" y="120" width="120" height="60" as="geometry" />
        </mxCell>
        <mxCell id="kqk7iKReCNO2bqUtsNR8-58" value="Etapa" style="rounded=0;whiteSpace=wrap;html=1;fillColor=#fff2cc;strokeColor=#d6b656;" vertex="1" parent="1">
          <mxGeometry x="740" y="-95" width="120" height="60" as="geometry" />
        </mxCell>
        <mxCell id="kqk7iKReCNO2bqUtsNR8-67" style="edgeStyle=none;rounded=0;orthogonalLoop=1;jettySize=auto;html=1;entryX=1;entryY=0;entryDx=0;entryDy=0;fontSize=10;endArrow=none;endFill=0;" edge="1" parent="1" source="kqk7iKReCNO2bqUtsNR8-68" target="kqk7iKReCNO2bqUtsNR8-58">
          <mxGeometry relative="1" as="geometry">
            <mxPoint x="1019" y="-181.01999999999998" as="targetPoint" />
          </mxGeometry>
        </mxCell>
        <mxCell id="kqk7iKReCNO2bqUtsNR8-68" value="numero_etapa" style="ellipse;whiteSpace=wrap;html=1;fontSize=10;fontStyle=4" vertex="1" parent="1">
          <mxGeometry x="865" y="-180" width="100" height="40" as="geometry" />
        </mxCell>
        <mxCell id="kqk7iKReCNO2bqUtsNR8-95" style="rounded=0;orthogonalLoop=1;jettySize=auto;html=1;entryX=1;entryY=1;entryDx=0;entryDy=0;fontSize=10;endArrow=none;endFill=0;" edge="1" parent="1" source="kqk7iKReCNO2bqUtsNR8-70" target="kqk7iKReCNO2bqUtsNR8-58">
          <mxGeometry relative="1" as="geometry" />
        </mxCell>
        <mxCell id="kqk7iKReCNO2bqUtsNR8-70" value="nome" style="ellipse;whiteSpace=wrap;html=1;fontSize=10;" vertex="1" parent="1">
          <mxGeometry x="875" y="5" width="75" height="40" as="geometry" />
        </mxCell>
        <mxCell id="kqk7iKReCNO2bqUtsNR8-71" style="edgeStyle=none;rounded=0;orthogonalLoop=1;jettySize=auto;html=1;entryX=1;entryY=0.25;entryDx=0;entryDy=0;fontSize=10;endArrow=none;endFill=0;" edge="1" parent="1" source="kqk7iKReCNO2bqUtsNR8-72" target="kqk7iKReCNO2bqUtsNR8-58">
          <mxGeometry relative="1" as="geometry">
            <mxPoint x="927.5" as="targetPoint" />
          </mxGeometry>
        </mxCell>
        <mxCell id="kqk7iKReCNO2bqUtsNR8-72" value="pais" style="ellipse;whiteSpace=wrap;html=1;fontSize=10;" vertex="1" parent="1">
          <mxGeometry x="930" y="-125" width="75" height="40" as="geometry" />
        </mxCell>
        <mxCell id="kqk7iKReCNO2bqUtsNR8-73" style="edgeStyle=none;rounded=0;orthogonalLoop=1;jettySize=auto;html=1;entryX=1;entryY=0.75;entryDx=0;entryDy=0;fontSize=10;endArrow=none;endFill=0;" edge="1" parent="1" source="kqk7iKReCNO2bqUtsNR8-74" target="kqk7iKReCNO2bqUtsNR8-58">
          <mxGeometry relative="1" as="geometry">
            <mxPoint x="967.4999999999998" as="targetPoint" />
          </mxGeometry>
        </mxCell>
        <mxCell id="kqk7iKReCNO2bqUtsNR8-74" value="data" style="ellipse;whiteSpace=wrap;html=1;fontSize=10;" vertex="1" parent="1">
          <mxGeometry x="930" y="-50" width="75" height="40" as="geometry" />
        </mxCell>
        <mxCell id="kqk7iKReCNO2bqUtsNR8-76" style="rounded=0;orthogonalLoop=1;jettySize=auto;html=1;entryX=1;entryY=0.5;entryDx=0;entryDy=0;fontSize=10;endArrow=none;endFill=0;" edge="1" parent="1" source="kqk7iKReCNO2bqUtsNR8-75" target="kqk7iKReCNO2bqUtsNR8-58">
          <mxGeometry relative="1" as="geometry">
            <mxPoint x="945.0199999999998" y="-0.7200000000000273" as="targetPoint" />
          </mxGeometry>
        </mxCell>
        <mxCell id="kqk7iKReCNO2bqUtsNR8-75" value="cidade" style="ellipse;whiteSpace=wrap;html=1;fontSize=10;" vertex="1" parent="1">
          <mxGeometry x="990" y="-85" width="75" height="40" as="geometry" />
        </mxCell>
        <mxCell id="kqk7iKReCNO2bqUtsNR8-80" style="edgeStyle=none;rounded=0;orthogonalLoop=1;jettySize=auto;html=1;entryX=0.5;entryY=1;entryDx=0;entryDy=0;fontSize=10;endArrow=none;endFill=0;" edge="1" parent="1" source="kqk7iKReCNO2bqUtsNR8-78" target="kqk7iKReCNO2bqUtsNR8-58">
          <mxGeometry relative="1" as="geometry" />
        </mxCell>
        <mxCell id="kqk7iKReCNO2bqUtsNR8-125" value="(1,n)" style="edgeLabel;html=1;align=center;verticalAlign=middle;resizable=0;points=[];fontSize=10;" vertex="1" connectable="0" parent="kqk7iKReCNO2bqUtsNR8-80">
          <mxGeometry x="0.4759" y="2" relative="1" as="geometry">
            <mxPoint x="1" y="8" as="offset" />
          </mxGeometry>
        </mxCell>
        <mxCell id="kqk7iKReCNO2bqUtsNR8-78" value="organiza" style="rhombus;whiteSpace=wrap;html=1;fontSize=10;fillColor=#dae8fc;strokeColor=#6c8ebf;" vertex="1" parent="1">
          <mxGeometry x="770" y="5" width="60" height="60" as="geometry" />
        </mxCell>
        <mxCell id="kqk7iKReCNO2bqUtsNR8-84" style="edgeStyle=none;rounded=0;orthogonalLoop=1;jettySize=auto;html=1;entryX=0;entryY=0.5;entryDx=0;entryDy=0;fontSize=10;endArrow=none;endFill=0;" edge="1" parent="1" source="kqk7iKReCNO2bqUtsNR8-82" target="kqk7iKReCNO2bqUtsNR8-83">
          <mxGeometry relative="1" as="geometry" />
        </mxCell>
        <mxCell id="kqk7iKReCNO2bqUtsNR8-127" value="(1,n)" style="edgeLabel;html=1;align=center;verticalAlign=middle;resizable=0;points=[];fontSize=10;" vertex="1" connectable="0" parent="kqk7iKReCNO2bqUtsNR8-84">
          <mxGeometry x="-0.6459" y="-1" relative="1" as="geometry">
            <mxPoint x="15" y="-1" as="offset" />
          </mxGeometry>
        </mxCell>
        <mxCell id="kqk7iKReCNO2bqUtsNR8-82" value="Trecho" style="rounded=0;whiteSpace=wrap;html=1;fillColor=#fff2cc;strokeColor=#d6b656;" vertex="1" parent="1">
          <mxGeometry x="465" y="-95" width="120" height="60" as="geometry" />
        </mxCell>
        <mxCell id="kqk7iKReCNO2bqUtsNR8-85" style="edgeStyle=none;rounded=0;orthogonalLoop=1;jettySize=auto;html=1;fontSize=10;endArrow=none;endFill=0;" edge="1" parent="1" source="kqk7iKReCNO2bqUtsNR8-83" target="kqk7iKReCNO2bqUtsNR8-58">
          <mxGeometry relative="1" as="geometry" />
        </mxCell>
        <mxCell id="kqk7iKReCNO2bqUtsNR8-126" value="(1,1)" style="edgeLabel;html=1;align=center;verticalAlign=middle;resizable=0;points=[];fontSize=10;" vertex="1" connectable="0" parent="kqk7iKReCNO2bqUtsNR8-85">
          <mxGeometry x="0.2988" y="-1" relative="1" as="geometry">
            <mxPoint x="-7" y="-1" as="offset" />
          </mxGeometry>
        </mxCell>
        <mxCell id="kqk7iKReCNO2bqUtsNR8-83" value="possui" style="rhombus;whiteSpace=wrap;html=1;fontSize=10;fillColor=#dae8fc;strokeColor=#6c8ebf;" vertex="1" parent="1">
          <mxGeometry x="635" y="-95" width="60" height="60" as="geometry" />
        </mxCell>
        <mxCell id="kqk7iKReCNO2bqUtsNR8-87" style="edgeStyle=none;rounded=0;orthogonalLoop=1;jettySize=auto;html=1;entryX=0.25;entryY=0;entryDx=0;entryDy=0;fontSize=10;endArrow=none;endFill=0;" edge="1" parent="1" source="kqk7iKReCNO2bqUtsNR8-86" target="kqk7iKReCNO2bqUtsNR8-82">
          <mxGeometry relative="1" as="geometry" />
        </mxCell>
        <mxCell id="kqk7iKReCNO2bqUtsNR8-86" value="numero_trecho" style="ellipse;whiteSpace=wrap;html=1;fontSize=10;fontStyle=4" vertex="1" parent="1">
          <mxGeometry x="415" y="-150" width="100" height="40" as="geometry" />
        </mxCell>
        <mxCell id="kqk7iKReCNO2bqUtsNR8-89" style="edgeStyle=none;rounded=0;orthogonalLoop=1;jettySize=auto;html=1;entryX=0.75;entryY=0;entryDx=0;entryDy=0;fontSize=10;endArrow=none;endFill=0;" edge="1" parent="1" source="kqk7iKReCNO2bqUtsNR8-88" target="kqk7iKReCNO2bqUtsNR8-82">
          <mxGeometry relative="1" as="geometry" />
        </mxCell>
        <mxCell id="kqk7iKReCNO2bqUtsNR8-88" value="tempo_previsto" style="ellipse;whiteSpace=wrap;html=1;fontSize=10;" vertex="1" parent="1">
          <mxGeometry x="545" y="-150" width="75" height="40" as="geometry" />
        </mxCell>
        <mxCell id="kqk7iKReCNO2bqUtsNR8-93" style="edgeStyle=orthogonalEdgeStyle;rounded=0;orthogonalLoop=1;jettySize=auto;html=1;entryX=0;entryY=0.5;entryDx=0;entryDy=0;fontSize=10;endArrow=none;endFill=0;exitX=0.5;exitY=1;exitDx=0;exitDy=0;" edge="1" parent="1" source="kqk7iKReCNO2bqUtsNR8-91" target="kqk7iKReCNO2bqUtsNR8-1">
          <mxGeometry relative="1" as="geometry">
            <Array as="points">
              <mxPoint x="63" y="150" />
            </Array>
          </mxGeometry>
        </mxCell>
        <mxCell id="kqk7iKReCNO2bqUtsNR8-128" value="(1,1)" style="edgeLabel;html=1;align=center;verticalAlign=middle;resizable=0;points=[];fontSize=10;" vertex="1" connectable="0" parent="kqk7iKReCNO2bqUtsNR8-93">
          <mxGeometry x="-0.1761" y="1" relative="1" as="geometry">
            <mxPoint x="-1" y="-27" as="offset" />
          </mxGeometry>
        </mxCell>
        <mxCell id="kqk7iKReCNO2bqUtsNR8-99" style="edgeStyle=none;rounded=0;orthogonalLoop=1;jettySize=auto;html=1;fontSize=10;endArrow=none;endFill=0;" edge="1" parent="1" source="kqk7iKReCNO2bqUtsNR8-91" target="kqk7iKReCNO2bqUtsNR8-96">
          <mxGeometry relative="1" as="geometry" />
        </mxCell>
        <mxCell id="kqk7iKReCNO2bqUtsNR8-129" value="(1,n)" style="edgeLabel;html=1;align=center;verticalAlign=middle;resizable=0;points=[];fontSize=10;" vertex="1" connectable="0" parent="kqk7iKReCNO2bqUtsNR8-99">
          <mxGeometry x="-0.4432" relative="1" as="geometry">
            <mxPoint x="26" y="-1" as="offset" />
          </mxGeometry>
        </mxCell>
        <mxCell id="kqk7iKReCNO2bqUtsNR8-91" value="obtem" style="rhombus;whiteSpace=wrap;html=1;fontSize=10;fillColor=#dae8fc;strokeColor=#6c8ebf;" vertex="1" parent="1">
          <mxGeometry x="32.5" y="-230" width="60" height="60" as="geometry" />
        </mxCell>
        <mxCell id="kqk7iKReCNO2bqUtsNR8-96" value="Pontuacao" style="rounded=0;whiteSpace=wrap;html=1;fillColor=#fff2cc;strokeColor=#d6b656;" vertex="1" parent="1">
          <mxGeometry x="210" y="-230" width="120" height="60" as="geometry" />
        </mxCell>
        <mxCell id="kqk7iKReCNO2bqUtsNR8-97" value="Equipe" style="rounded=0;whiteSpace=wrap;html=1;fillColor=#fff2cc;strokeColor=#d6b656;" vertex="1" parent="1">
          <mxGeometry x="210" y="-90" width="120" height="60" as="geometry" />
        </mxCell>
        <mxCell id="kqk7iKReCNO2bqUtsNR8-103" style="edgeStyle=none;rounded=0;orthogonalLoop=1;jettySize=auto;html=1;fontSize=10;endArrow=none;endFill=0;" edge="1" parent="1" source="kqk7iKReCNO2bqUtsNR8-101" target="kqk7iKReCNO2bqUtsNR8-96">
          <mxGeometry relative="1" as="geometry" />
        </mxCell>
        <mxCell id="kqk7iKReCNO2bqUtsNR8-101" value="tempo_marcado" style="ellipse;whiteSpace=wrap;html=1;fontSize=10;" vertex="1" parent="1">
          <mxGeometry x="147.5" y="-280" width="80" height="40" as="geometry" />
        </mxCell>
        <mxCell id="kqk7iKReCNO2bqUtsNR8-104" style="edgeStyle=none;rounded=0;orthogonalLoop=1;jettySize=auto;html=1;entryX=0.75;entryY=0;entryDx=0;entryDy=0;fontSize=10;endArrow=none;endFill=0;" edge="1" parent="1" source="kqk7iKReCNO2bqUtsNR8-102" target="kqk7iKReCNO2bqUtsNR8-96">
          <mxGeometry relative="1" as="geometry" />
        </mxCell>
        <mxCell id="kqk7iKReCNO2bqUtsNR8-102" value="posicao" style="ellipse;whiteSpace=wrap;html=1;fontSize=10;" vertex="1" parent="1">
          <mxGeometry x="300" y="-280" width="80" height="40" as="geometry" />
        </mxCell>
        <mxCell id="kqk7iKReCNO2bqUtsNR8-106" style="edgeStyle=none;rounded=0;orthogonalLoop=1;jettySize=auto;html=1;entryX=0.5;entryY=0;entryDx=0;entryDy=0;fontSize=10;endArrow=none;endFill=0;" edge="1" parent="1" source="kqk7iKReCNO2bqUtsNR8-105" target="kqk7iKReCNO2bqUtsNR8-82">
          <mxGeometry relative="1" as="geometry" />
        </mxCell>
        <mxCell id="kqk7iKReCNO2bqUtsNR8-130" value="(1,1)" style="edgeLabel;html=1;align=center;verticalAlign=middle;resizable=0;points=[];fontSize=10;" vertex="1" connectable="0" parent="kqk7iKReCNO2bqUtsNR8-106">
          <mxGeometry x="-0.238" relative="1" as="geometry">
            <mxPoint as="offset" />
          </mxGeometry>
        </mxCell>
        <mxCell id="kqk7iKReCNO2bqUtsNR8-107" style="edgeStyle=none;rounded=0;orthogonalLoop=1;jettySize=auto;html=1;entryX=1;entryY=0.5;entryDx=0;entryDy=0;fontSize=10;endArrow=none;endFill=0;" edge="1" parent="1" source="kqk7iKReCNO2bqUtsNR8-105" target="kqk7iKReCNO2bqUtsNR8-96">
          <mxGeometry relative="1" as="geometry" />
        </mxCell>
        <mxCell id="kqk7iKReCNO2bqUtsNR8-131" value="(1,1)" style="edgeLabel;html=1;align=center;verticalAlign=middle;resizable=0;points=[];fontSize=10;" vertex="1" connectable="0" parent="kqk7iKReCNO2bqUtsNR8-107">
          <mxGeometry x="0.3822" y="-1" relative="1" as="geometry">
            <mxPoint x="25" as="offset" />
          </mxGeometry>
        </mxCell>
        <mxCell id="kqk7iKReCNO2bqUtsNR8-105" value="marca" style="rhombus;whiteSpace=wrap;html=1;fontSize=10;fillColor=#dae8fc;strokeColor=#6c8ebf;" vertex="1" parent="1">
          <mxGeometry x="495" y="-230" width="60" height="60" as="geometry" />
        </mxCell>
        <mxCell id="kqk7iKReCNO2bqUtsNR8-114" value="categoriza" style="rhombus;whiteSpace=wrap;html=1;fontSize=10;fillColor=#dae8fc;strokeColor=#6c8ebf;" vertex="1" parent="1">
          <mxGeometry x="635" y="210" width="60" height="60" as="geometry" />
        </mxCell>
        <mxCell id="kqk7iKReCNO2bqUtsNR8-133" style="edgeStyle=orthogonalEdgeStyle;rounded=0;orthogonalLoop=1;jettySize=auto;html=1;entryX=0.5;entryY=0;entryDx=0;entryDy=0;fontSize=10;endArrow=none;endFill=0;" edge="1" parent="1" source="kqk7iKReCNO2bqUtsNR8-132" target="kqk7iKReCNO2bqUtsNR8-96">
          <mxGeometry relative="1" as="geometry" />
        </mxCell>
        <mxCell id="kqk7iKReCNO2bqUtsNR8-132" value="media_posicao_final" style="ellipse;whiteSpace=wrap;html=1;fontSize=10;" vertex="1" parent="1">
          <mxGeometry x="221.88" y="-310" width="96.25" height="30" as="geometry" />
        </mxCell>
        <mxCell id="kqk7iKReCNO2bqUtsNR8-134" style="edgeStyle=none;rounded=0;orthogonalLoop=1;jettySize=auto;html=1;entryX=0.5;entryY=1;entryDx=0;entryDy=0;fontSize=10;endArrow=none;endFill=0;" edge="1" parent="1" source="kqk7iKReCNO2bqUtsNR8-135" target="kqk7iKReCNO2bqUtsNR8-57">
          <mxGeometry relative="1" as="geometry">
            <mxPoint x="890" y="200" as="targetPoint" />
          </mxGeometry>
        </mxCell>
        <mxCell id="kqk7iKReCNO2bqUtsNR8-135" value="&lt;u&gt;codigo&lt;/u&gt;" style="ellipse;whiteSpace=wrap;html=1;fontSize=10;" vertex="1" parent="1">
          <mxGeometry x="762.5" y="200" width="75" height="40" as="geometry" />
        </mxCell>
      </root>
    </mxGraphModel>
  </diagram>
</mxfile>
